<svg width="31" height="31" fill="none" xmlns="http://www.w3.org/2000/svg"><path d="M23.62 8.12A8.12 8.12 0 0015.5 0a8.12 8.12 0 00-8.12 8.12c0 6.426 8.12 15.934 8.12 15.934s8.12-9.541 8.12-15.934zm-12.125-.485a4.005 4.005 0 118.01 0 4.005 4.005 0 01-8.01 0z" fill="#37373F"/><path d="M15.499 9.604a1.97 1.97 0 100-3.938 1.97 1.97 0 000 3.938z" fill="#C94042"/><path d="M20.09 21.229a57.68 57.68 0 01-1.8 2.459c5.131.308 8.494 1.416 9.745 2.24-1.465.966-5.82 2.325-12.535 2.325-6.714 0-11.069-1.36-12.534-2.325 1.25-.824 4.61-1.931 9.737-2.24A56.825 56.825 0 0110.9 21.23C4.586 21.852 0 23.72 0 25.927c0 2.716 6.94 4.919 15.5 4.919 8.561 0 15.5-2.202 15.5-4.919.001-2.208-4.59-4.077-10.91-4.698z" fill="#37373F"/></svg>